<?xml version="1.0" encoding="UTF-8" standalone="no"?>
<!-- Created with Inkscape (http://www.inkscape.org/) -->

<svg
   width="102.02152mm"
   height="104.30616mm"
   viewBox="0 0 102.02152 104.30616"
   version="1.1"
   id="svg1"
   xmlns:inkscape="http://www.inkscape.org/namespaces/inkscape"
   xmlns:sodipodi="http://sodipodi.sourceforge.net/DTD/sodipodi-0.dtd"
   xmlns="http://www.w3.org/2000/svg"
   xmlns:svg="http://www.w3.org/2000/svg">
  <sodipodi:namedview
     id="namedview1"
     pagecolor="#ffffff"
     bordercolor="#666666"
     borderopacity="1.0"
     inkscape:showpageshadow="2"
     inkscape:pageopacity="0.0"
     inkscape:pagecheckerboard="0"
     inkscape:deskcolor="#d1d1d1"
     inkscape:document-units="mm"
     inkscape:zoom="0.69219276"
     inkscape:cx="301.93901"
     inkscape:cy="523.69805"
     inkscape:window-width="1920"
     inkscape:window-height="991"
     inkscape:window-x="-9"
     inkscape:window-y="-9"
     inkscape:window-maximized="1"
     inkscape:current-layer="layer1" />
  <defs
     id="defs1" />
  <g
     inkscape:label="Layer 1"
     inkscape:groupmode="layer"
     id="layer1"
     transform="translate(-48.723005,-40.135569)">
    <g
       id="g3"
       transform="matrix(16.16428,0,0,16.16428,-1554.4273,-985.52284)">
      <text
         xml:space="preserve"
         style="font-size:4.17542px;line-height:1.25;font-family:Arial;-inkscape-font-specification:Arial;stroke-width:0.347951"
         x="98.984634"
         y="66.642845"
         id="text2"><tspan
           sodipodi:role="line"
           id="tspan2"
           style="font-style:normal;font-variant:normal;font-weight:normal;font-stretch:normal;font-size:4.17542px;font-family:'Agency FB';-inkscape-font-specification:'Agency FB, Normal';font-variant-ligatures:normal;font-variant-caps:normal;font-variant-numeric:normal;font-variant-east-asian:normal;stroke-width:0.347951"
           x="98.984634"
           y="66.642845">FRSS</tspan></text>
      <path
         style="font-size:3.175px;line-height:1.25;font-family:'Agency FB';-inkscape-font-specification:'Agency FB, Normal';stroke-width:0.264583"
         d="m 100.17852,68.894241 c 0,0.128157 -0.0424,0.233577 -0.12713,0.31626 -0.0837,0.08165 -0.189649,0.122473 -0.317807,0.122473 h -0.555005 v -2.426209 h 0.555005 c 0.129191,0 0.235647,0.04134 0.319357,0.124024 0.0837,0.08165 0.12558,0.186552 0.12558,0.314709 z m -0.21549,-0.0217 v -1.508435 c 0,-0.07958 -0.0253,-0.143661 -0.07597,-0.192237 -0.04961,-0.04961 -0.114202,-0.07441 -0.193787,-0.07441 h -0.299206 v 2.044837 h 0.286804 c 0.08372,0 0.151412,-0.02377 0.203088,-0.07131 0.05271,-0.04857 0.07907,-0.114719 0.07907,-0.198437 z m 1.41231,0.285254 c 0,0.116789 -0.0579,0.175183 -0.17363,0.175183 h -0.49609 c -0.11576,0 -0.17364,-0.05839 -0.17364,-0.175183 v -1.158069 c 0,-0.116789 0.0579,-0.175183 0.17364,-0.175183 h 0.49609 c 0.11575,0 0.17363,0.05839 0.17363,0.175183 v 0.542602 l -0.0698,0.07286 h -0.57361 v 0.545703 h 0.44339 v -0.275952 h 0.19998 z m -0.19998,-0.706934 v -0.454236 h -0.44339 v 0.454236 z m 1.3534,0.706934 c 0,0.116789 -0.0584,0.175183 -0.17518,0.175183 h -0.47284 c -0.11679,0 -0.17518,-0.05839 -0.17518,-0.175183 V 68.81518 h 0.20308 v 0.339514 h 0.41703 v -0.300757 l -0.5395,-0.441833 c -0.0517,-0.04134 -0.0775,-0.09508 -0.0775,-0.161231 v -0.251147 c 0,-0.116789 0.0584,-0.175183 0.17518,-0.175183 h 0.46664 c 0.11679,0 0.17518,0.05839 0.17518,0.175183 v 0.300757 h -0.19999 v -0.297657 h -0.41703 v 0.26355 l 0.54416,0.441834 c 0.0507,0.04031 0.076,0.09508 0.076,0.164331 z m 2.96136,-1.663465 h -4.97304 v -0.260449 h 4.97304 z m -2.41866,1.838648 h -0.20308 v -1.508435 h 0.20308 z m 1.20768,0.396875 c 0,0.116789 -0.0584,0.175183 -0.17518,0.175183 h -0.48989 c -0.11886,0 -0.17829,-0.0739 -0.17829,-0.221692 0,-0.01757 6.7e-4,-0.04392 0.002,-0.07906 0.002,-0.03411 0.003,-0.05891 0.003,-0.07441 h 0.20309 v 0.199988 h 0.43098 v -0.396875 h -0.33951 c -0.092,0 -0.16847,-0.03049 -0.22944,-0.09147 -0.061,-0.06201 -0.0915,-0.139528 -0.0915,-0.232544 v -0.882117 c 0,-0.08888 0.0269,-0.162781 0.0806,-0.221692 0.0537,-0.05995 0.12453,-0.08992 0.21239,-0.08992 0.0238,0 0.14627,0.01705 0.36742,0.05116 v -0.04186 h 0.20464 z m -0.20464,-0.578259 v -1.139466 c -0.16329,-0.01033 -0.25838,-0.0155 -0.28525,-0.0155 -0.11369,0 -0.17053,0.05788 -0.17053,0.173633 v 0.807703 c 0,0.115755 0.0568,0.173633 0.17053,0.173633 z m 1.41077,0.181384 h -0.20619 v -1.32395 l -0.45424,0.0124 v 1.311548 h -0.20618 v -1.508435 h 0.20618 v 0.04186 c 0.0806,-0.01033 0.16175,-0.02119 0.2434,-0.03256 0.0992,-0.0124 0.18087,-0.0186 0.24495,-0.0186 0.11472,0 0.17208,0.05633 0.17208,0.168982 z"
         id="text3-7"
         aria-label="Design"
         sodipodi:nodetypes="sssccscsscscsccscsccsssssssccccccccccccccsssccccccssssscccccccccccccccccccsssccccccscsscsccccccsssscccccccccccssc" />
    </g>
  </g>
</svg>
